solid Default
  facet normal 8.881785e-15 -1.000000e+00 2.819614e-15
    outer loop
      vertex -1.500006e+00 -7.500000e+00 1.125000e+01
      vertex 4.500003e+00 -7.500000e+00 1.125000e+01
      vertex -1.500006e+00 -7.500000e+00 5.850000e+01
    endloop
  endfacet
  facet normal -1.332268e-14 -1.000000e+00 0.000000e+00
    outer loop
      vertex -1.500006e+00 -7.500000e+00 5.850000e+01
      vertex 4.500003e+00 -7.500000e+00 1.125000e+01
      vertex 4.500003e+00 -7.500000e+00 6.150000e+01
    endloop
  endfacet
  facet normal -7.401487e-15 -1.000000e+00 -1.184238e-14
    outer loop
      vertex -1.500006e+00 -7.500000e+00 6.750000e+01
      vertex -1.500006e+00 -7.500000e+00 5.850000e+01
      vertex 4.500003e+00 -7.500000e+00 6.150000e+01
    endloop
  endfacet
  facet normal 1.000000e+00 1.332268e-14 -2.151439e-29
    outer loop
      vertex 7.500000e+00 1.500006e+00 1.125000e+01
      vertex 7.500000e+00 1.500006e+00 2.775000e+01
      vertex 7.500000e+00 -4.500003e+00 1.125000e+01
    endloop
  endfacet
  facet normal 1.000000e+00 1.332268e-14 0.000000e+00
    outer loop
      vertex 7.500000e+00 -4.500003e+00 1.125000e+01
      vertex 7.500000e+00 1.500006e+00 2.775000e+01
      vertex 7.500000e+00 -4.500003e+00 6.150000e+01
    endloop
  endfacet
  facet normal 1.000000e+00 5.781539e-15 -1.340647e-15
    outer loop
      vertex 7.500000e+00 -4.500003e+00 6.150000e+01
      vertex 7.500000e+00 1.500006e+00 2.775000e+01
      vertex 7.500000e+00 1.500006e+00 6.750000e+01
    endloop
  endfacet
  facet normal 0.000000e+00 -6.938894e-16 1.000000e+00
    outer loop
      vertex -1.500006e+00 -7.500000e+00 3.000000e+00
      vertex -4.500003e+00 -1.050000e+01 3.000000e+00
      vertex 1.499991e+00 -1.050000e+01 3.000000e+00
    endloop
  endfacet
  facet normal -7.071068e-01 -7.071068e-01 0.000000e+00
    outer loop
      vertex 1.499991e+00 -1.050000e+01 3.000000e+00
      vertex 1.499991e+00 -1.050000e+01 1.125000e+01
      vertex -1.500006e+00 -7.500000e+00 3.000000e+00
    endloop
  endfacet
  facet normal -7.071068e-01 -7.071068e-01 -4.549700e-15
    outer loop
      vertex -1.500006e+00 -7.500000e+00 3.000000e+00
      vertex 1.499991e+00 -1.050000e+01 1.125000e+01
      vertex -1.500006e+00 -7.500000e+00 1.125000e+01
    endloop
  endfacet
  facet normal 6.938894e-16 0.000000e+00 1.000000e+00
    outer loop
      vertex 1.050000e+01 4.500003e+00 3.000000e+00
      vertex 7.500000e+00 1.500006e+00 3.000000e+00
      vertex 1.050000e+01 -1.499991e+00 3.000000e+00
    endloop
  endfacet
  facet normal -4.440893e-15 1.000000e+00 0.000000e+00
    outer loop
      vertex -7.500000e+00 -1.499991e+00 5.510945e-16
      vertex -7.500000e+00 -1.499991e+00 5.250000e+01
      vertex -1.500006e+00 -1.499991e+00 5.510945e-16
    endloop
  endfacet
  facet normal -4.440893e-15 1.000000e+00 -2.022720e-30
    outer loop
      vertex -1.500006e+00 -1.499991e+00 5.510945e-16
      vertex -7.500000e+00 -1.499991e+00 5.250000e+01
      vertex -1.500006e+00 -1.499991e+00 5.850000e+01
    endloop
  endfacet
  facet normal 7.071068e-01 7.071068e-01 4.567542e-15
    outer loop
      vertex 7.500000e+00 1.500006e+00 3.000000e+00
      vertex 7.500000e+00 1.500006e+00 1.125000e+01
      vertex 1.050000e+01 -1.499991e+00 3.000000e+00
    endloop
  endfacet
  facet normal 7.071068e-01 7.071068e-01 -2.319455e-15
    outer loop
      vertex 1.050000e+01 -1.499991e+00 3.000000e+00
      vertex 7.500000e+00 1.500006e+00 1.125000e+01
      vertex 1.050000e+01 -1.499991e+00 1.125000e+01
    endloop
  endfacet
  facet normal 1.850372e-16 8.326674e-15 1.000000e+00
    outer loop
      vertex 1.050000e+01 1.050000e+01 2.775000e+01
      vertex 1.499991e+00 1.500006e+00 2.775000e+01
      vertex 1.050000e+01 4.500003e+00 2.775000e+01
    endloop
  endfacet
  facet normal 4.440893e-15 -4.440893e-15 1.000000e+00
    outer loop
      vertex 1.050000e+01 4.500003e+00 2.775000e+01
      vertex 1.499991e+00 1.500006e+00 2.775000e+01
      vertex 7.500000e+00 1.500006e+00 2.775000e+01
    endloop
  endfacet
  facet normal 7.071068e-01 -7.071068e-01 4.549700e-15
    outer loop
      vertex 7.500000e+00 1.500006e+00 3.000000e+00
      vertex 1.050000e+01 4.500003e+00 3.000000e+00
      vertex 7.500000e+00 1.500006e+00 1.125000e+01
    endloop
  endfacet
  facet normal 7.071068e-01 -7.071068e-01 3.045028e-15
    outer loop
      vertex 7.500000e+00 1.500006e+00 1.125000e+01
      vertex 1.050000e+01 4.500003e+00 3.000000e+00
      vertex 1.050000e+01 4.500003e+00 2.775000e+01
    endloop
  endfacet
  facet normal 7.071068e-01 -7.071068e-01 1.141885e-15
    outer loop
      vertex 7.500000e+00 1.500006e+00 2.775000e+01
      vertex 7.500000e+00 1.500006e+00 1.125000e+01
      vertex 1.050000e+01 4.500003e+00 2.775000e+01
    endloop
  endfacet
  facet normal 1.000000e+00 5.921189e-15 -1.480297e-14
    outer loop
      vertex 1.050000e+01 1.050000e+01 5.510945e-16
      vertex 1.050000e+01 4.500003e+00 3.000000e+00
      vertex 1.050000e+01 -7.500000e+00 5.023559e-14
    endloop
  endfacet
  facet normal 1.000000e+00 1.236248e-14 -1.920386e-15
    outer loop
      vertex 1.050000e+01 1.050000e+01 5.510945e-16
      vertex 1.050000e+01 1.050000e+01 2.775000e+01
      vertex 1.050000e+01 4.500003e+00 3.000000e+00
    endloop
  endfacet
  facet normal 1.000000e+00 4.440893e-15 -1.912390e-29
    outer loop
      vertex 1.050000e+01 4.500003e+00 3.000000e+00
      vertex 1.050000e+01 1.050000e+01 2.775000e+01
      vertex 1.050000e+01 4.500003e+00 2.775000e+01
    endloop
  endfacet
  facet normal 1.000000e+00 0.000000e+00 8.881785e-15
    outer loop
      vertex 1.050000e+01 4.500003e+00 3.000000e+00
      vertex 1.050000e+01 -1.499991e+00 3.000000e+00
      vertex 1.050000e+01 -7.500000e+00 5.023559e-14
    endloop
  endfacet
  facet normal 1.000000e+00 4.440893e-15 0.000000e+00
    outer loop
      vertex 1.050000e+01 -7.500000e+00 5.023559e-14
      vertex 1.050000e+01 -1.499991e+00 3.000000e+00
      vertex 1.050000e+01 -7.500000e+00 6.750000e+00
    endloop
  endfacet
  facet normal 1.000000e+00 2.422305e-15 -3.229740e-15
    outer loop
      vertex 1.050000e+01 -7.500000e+00 6.750000e+00
      vertex 1.050000e+01 -1.499991e+00 3.000000e+00
      vertex 1.050000e+01 -1.499991e+00 1.125000e+01
    endloop
  endfacet
  facet normal -7.071068e-01 7.071068e-01 0.000000e+00
    outer loop
      vertex 1.499991e+00 7.500000e+00 3.673952e-16
      vertex 1.499991e+00 7.500000e+00 2.175000e+01
      vertex 4.500003e+00 1.050000e+01 5.510945e-16
    endloop
  endfacet
  facet normal -7.071068e-01 7.071068e-01 0.000000e+00
    outer loop
      vertex 4.500003e+00 1.050000e+01 5.510945e-16
      vertex 1.499991e+00 7.500000e+00 2.175000e+01
      vertex 4.500003e+00 1.050000e+01 2.175000e+01
    endloop
  endfacet
  facet normal -1.000000e+00 -9.841977e-15 -9.601929e-16
    outer loop
      vertex 1.499991e+00 1.500006e+00 2.775000e+01
      vertex 1.499991e+00 7.500000e+00 2.175000e+01
      vertex 1.499991e+00 1.500006e+00 8.602223e-15
    endloop
  endfacet
  facet normal -1.000000e+00 -1.332268e-14 -0.000000e+00
    outer loop
      vertex 1.499991e+00 1.500006e+00 8.602223e-15
      vertex 1.499991e+00 7.500000e+00 2.175000e+01
      vertex 1.499991e+00 7.500000e+00 3.673952e-16
    endloop
  endfacet
  facet normal -5.773503e-01 5.773503e-01 5.773503e-01
    outer loop
      vertex 1.050000e+01 1.050000e+01 2.775000e+01
      vertex 4.500003e+00 1.050000e+01 2.175000e+01
      vertex 1.499991e+00 1.500006e+00 2.775000e+01
    endloop
  endfacet
  facet normal -5.773503e-01 5.773503e-01 5.773503e-01
    outer loop
      vertex 1.499991e+00 1.500006e+00 2.775000e+01
      vertex 4.500003e+00 1.050000e+01 2.175000e+01
      vertex 1.499991e+00 7.500000e+00 2.175000e+01
    endloop
  endfacet
  facet normal -4.440893e-15 1.000000e+00 0.000000e+00
    outer loop
      vertex 4.500003e+00 1.050000e+01 5.510945e-16
      vertex 4.500003e+00 1.050000e+01 2.175000e+01
      vertex 1.050000e+01 1.050000e+01 5.510945e-16
    endloop
  endfacet
  facet normal -4.440893e-15 1.000000e+00 8.528227e-30
    outer loop
      vertex 1.050000e+01 1.050000e+01 5.510945e-16
      vertex 4.500003e+00 1.050000e+01 2.175000e+01
      vertex 1.050000e+01 1.050000e+01 2.775000e+01
    endloop
  endfacet
  facet normal 7.071068e-01 -7.071068e-01 0.000000e+00
    outer loop
      vertex 1.050000e+01 -7.500000e+00 5.023559e-14
      vertex 1.050000e+01 -7.500000e+00 6.750000e+00
      vertex 7.500000e+00 -1.050000e+01 5.023559e-14
    endloop
  endfacet
  facet normal 7.071068e-01 -7.071068e-01 -5.560744e-15
    outer loop
      vertex 7.500000e+00 -1.050000e+01 5.023559e-14
      vertex 1.050000e+01 -7.500000e+00 6.750000e+00
      vertex 7.500000e+00 -1.050000e+01 6.750000e+00
    endloop
  endfacet
  facet normal 5.144957e-01 -5.144957e-01 6.859943e-01
    outer loop
      vertex 1.050000e+01 -7.500000e+00 6.750000e+00
      vertex 7.500000e+00 -4.500003e+00 1.125000e+01
      vertex 7.500000e+00 -1.050000e+01 6.750000e+00
    endloop
  endfacet
  facet normal 5.144957e-01 -5.144957e-01 6.859943e-01
    outer loop
      vertex 1.050000e+01 -7.500000e+00 6.750000e+00
      vertex 1.050000e+01 -1.499991e+00 1.125000e+01
      vertex 7.500000e+00 -4.500003e+00 1.125000e+01
    endloop
  endfacet
  facet normal 5.144957e-01 -5.144957e-01 6.859943e-01
    outer loop
      vertex 7.500000e+00 -4.500003e+00 1.125000e+01
      vertex 4.500003e+00 -7.500000e+00 1.125000e+01
      vertex 7.500000e+00 -1.050000e+01 6.750000e+00
    endloop
  endfacet
  facet normal 5.144957e-01 -5.144957e-01 6.859943e-01
    outer loop
      vertex 7.500000e+00 -1.050000e+01 6.750000e+00
      vertex 4.500003e+00 -7.500000e+00 1.125000e+01
      vertex 1.499991e+00 -1.050000e+01 1.125000e+01
    endloop
  endfacet
  facet normal 6.573841e-29 -8.881785e-15 1.000000e+00
    outer loop
      vertex -1.500006e+00 -7.500000e+00 6.750000e+01
      vertex 7.500000e+00 1.500006e+00 6.750000e+01
      vertex -1.500006e+00 -1.499991e+00 6.750000e+01
    endloop
  endfacet
  facet normal -4.440893e-15 4.440893e-15 1.000000e+00
    outer loop
      vertex -1.500006e+00 -1.499991e+00 6.750000e+01
      vertex 7.500000e+00 1.500006e+00 6.750000e+01
      vertex 1.499991e+00 1.500006e+00 6.750000e+01
    endloop
  endfacet
  facet normal -7.071068e-01 7.071068e-01 1.046728e-14
    outer loop
      vertex -1.500006e+00 -1.499991e+00 6.750000e+01
      vertex 1.499991e+00 1.500006e+00 6.750000e+01
      vertex -1.500006e+00 -1.499991e+00 5.850000e+01
    endloop
  endfacet
  facet normal -7.071068e-01 7.071068e-01 1.895961e-15
    outer loop
      vertex -1.500006e+00 -1.499991e+00 5.850000e+01
      vertex 1.499991e+00 1.500006e+00 6.750000e+01
      vertex 1.499991e+00 1.500006e+00 2.775000e+01
    endloop
  endfacet
  facet normal -7.071068e-01 7.071068e-01 -2.715836e-15
    outer loop
      vertex -1.500006e+00 -1.499991e+00 5.510945e-16
      vertex 1.499991e+00 1.500006e+00 2.775000e+01
      vertex 1.499991e+00 1.500006e+00 8.602223e-15
    endloop
  endfacet
  facet normal -7.071068e-01 7.071068e-01 -3.220702e-16
    outer loop
      vertex -1.500006e+00 -1.499991e+00 5.510945e-16
      vertex -1.500006e+00 -1.499991e+00 5.850000e+01
      vertex 1.499991e+00 1.500006e+00 2.775000e+01
    endloop
  endfacet
  facet normal -4.440893e-15 1.000000e+00 2.010970e-15
    outer loop
      vertex 1.499991e+00 1.500006e+00 2.775000e+01
      vertex 1.499991e+00 1.500006e+00 6.750000e+01
      vertex 7.500000e+00 1.500006e+00 2.775000e+01
    endloop
  endfacet
  facet normal -4.440893e-15 1.000000e+00 2.010970e-15
    outer loop
      vertex 7.500000e+00 1.500006e+00 2.775000e+01
      vertex 1.499991e+00 1.500006e+00 6.750000e+01
      vertex 7.500000e+00 1.500006e+00 6.750000e+01
    endloop
  endfacet
  facet normal -1.000000e+00 -4.440893e-15 8.881785e-15
    outer loop
      vertex -1.500006e+00 -7.500000e+00 5.850000e+01
      vertex -1.500006e+00 -7.500000e+00 6.750000e+01
      vertex -1.500006e+00 -1.499991e+00 5.850000e+01
    endloop
  endfacet
  facet normal -1.000000e+00 -8.881785e-15 5.921189e-15
    outer loop
      vertex -1.500006e+00 -1.499991e+00 5.850000e+01
      vertex -1.500006e+00 -7.500000e+00 6.750000e+01
      vertex -1.500006e+00 -1.499991e+00 6.750000e+01
    endloop
  endfacet
  facet normal 7.071068e-01 -7.071068e-01 0.000000e+00
    outer loop
      vertex 7.500000e+00 -4.500003e+00 1.125000e+01
      vertex 7.500000e+00 -4.500003e+00 6.150000e+01
      vertex 4.500003e+00 -7.500000e+00 1.125000e+01
    endloop
  endfacet
  facet normal 7.071068e-01 -7.071068e-01 0.000000e+00
    outer loop
      vertex 4.500003e+00 -7.500000e+00 1.125000e+01
      vertex 7.500000e+00 -4.500003e+00 6.150000e+01
      vertex 4.500003e+00 -7.500000e+00 6.150000e+01
    endloop
  endfacet
  facet normal 5.773503e-01 -5.773503e-01 5.773503e-01
    outer loop
      vertex -1.500006e+00 -7.500000e+00 6.750000e+01
      vertex 4.500003e+00 -7.500000e+00 6.150000e+01
      vertex 7.500000e+00 1.500006e+00 6.750000e+01
    endloop
  endfacet
  facet normal 5.773503e-01 -5.773503e-01 5.773503e-01
    outer loop
      vertex 7.500000e+00 1.500006e+00 6.750000e+01
      vertex 4.500003e+00 -7.500000e+00 6.150000e+01
      vertex 7.500000e+00 -4.500003e+00 6.150000e+01
    endloop
  endfacet
  facet normal 3.700743e-16 7.771561e-15 1.000000e+00
    outer loop
      vertex -1.500006e+00 -1.499991e+00 5.850000e+01
      vertex -1.050000e+01 -1.050000e+01 5.850000e+01
      vertex -1.500006e+00 -7.500000e+00 5.850000e+01
    endloop
  endfacet
  facet normal 4.440893e-15 -4.440893e-15 1.000000e+00
    outer loop
      vertex -1.500006e+00 -7.500000e+00 5.850000e+01
      vertex -1.050000e+01 -1.050000e+01 5.850000e+01
      vertex -4.500003e+00 -1.050000e+01 5.850000e+01
    endloop
  endfacet
  facet normal 7.071068e-01 -7.071068e-01 -1.827017e-14
    outer loop
      vertex -1.500006e+00 -7.500000e+00 3.000000e+00
      vertex -1.500006e+00 -7.500000e+00 1.125000e+01
      vertex -4.500003e+00 -1.050000e+01 3.000000e+00
    endloop
  endfacet
  facet normal 7.071068e-01 -7.071068e-01 1.014460e-15
    outer loop
      vertex -4.500003e+00 -1.050000e+01 3.000000e+00
      vertex -1.500006e+00 -7.500000e+00 1.125000e+01
      vertex -4.500003e+00 -1.050000e+01 5.850000e+01
    endloop
  endfacet
  facet normal 7.071068e-01 -7.071068e-01 3.190029e-15
    outer loop
      vertex -4.500003e+00 -1.050000e+01 5.850000e+01
      vertex -1.500006e+00 -7.500000e+00 1.125000e+01
      vertex -1.500006e+00 -7.500000e+00 5.850000e+01
    endloop
  endfacet
  facet normal 0.000000e+00 -1.000000e+00 0.000000e+00
    outer loop
      vertex -4.500003e+00 -1.050000e+01 3.000000e+00
      vertex 7.500000e+00 -1.050000e+01 5.023559e-14
      vertex 1.499991e+00 -1.050000e+01 3.000000e+00
    endloop
  endfacet
  facet normal 2.960595e-15 -1.000000e+00 1.184238e-14
    outer loop
      vertex -4.500003e+00 -1.050000e+01 3.000000e+00
      vertex -1.050000e+01 -1.050000e+01 0.000000e+00
      vertex 7.500000e+00 -1.050000e+01 5.023559e-14
    endloop
  endfacet
  facet normal 8.426308e-15 -1.000000e+00 9.109523e-16
    outer loop
      vertex -4.500003e+00 -1.050000e+01 3.000000e+00
      vertex -1.050000e+01 -1.050000e+01 5.850000e+01
      vertex -1.050000e+01 -1.050000e+01 0.000000e+00
    endloop
  endfacet
  facet normal 4.440893e-15 -1.000000e+00 4.800964e-16
    outer loop
      vertex -4.500003e+00 -1.050000e+01 3.000000e+00
      vertex -4.500003e+00 -1.050000e+01 5.850000e+01
      vertex -1.050000e+01 -1.050000e+01 5.850000e+01
    endloop
  endfacet
  facet normal 0.000000e+00 -1.000000e+00 0.000000e+00
    outer loop
      vertex 7.500000e+00 -1.050000e+01 5.023559e-14
      vertex 7.500000e+00 -1.050000e+01 6.750000e+00
      vertex 1.499991e+00 -1.050000e+01 3.000000e+00
    endloop
  endfacet
  facet normal 0.000000e+00 -1.000000e+00 0.000000e+00
    outer loop
      vertex 1.499991e+00 -1.050000e+01 3.000000e+00
      vertex 7.500000e+00 -1.050000e+01 6.750000e+00
      vertex 1.499991e+00 -1.050000e+01 1.125000e+01
    endloop
  endfacet
  facet normal -7.071068e-01 7.071068e-01 0.000000e+00
    outer loop
      vertex -1.050000e+01 -4.500003e+00 3.673952e-16
      vertex -1.050000e+01 -4.500003e+00 5.250000e+01
      vertex -7.500000e+00 -1.499991e+00 5.510945e-16
    endloop
  endfacet
  facet normal -7.071068e-01 7.071068e-01 0.000000e+00
    outer loop
      vertex -7.500000e+00 -1.499991e+00 5.510945e-16
      vertex -1.050000e+01 -4.500003e+00 5.250000e+01
      vertex -7.500000e+00 -1.499991e+00 5.250000e+01
    endloop
  endfacet
  facet normal -1.000000e+00 -8.881785e-15 0.000000e+00
    outer loop
      vertex -1.050000e+01 -4.500003e+00 3.673952e-16
      vertex -1.050000e+01 -1.050000e+01 0.000000e+00
      vertex -1.050000e+01 -4.500003e+00 5.250000e+01
    endloop
  endfacet
  facet normal -1.000000e+00 -8.881785e-15 8.090882e-30
    outer loop
      vertex -1.050000e+01 -4.500003e+00 5.250000e+01
      vertex -1.050000e+01 -1.050000e+01 0.000000e+00
      vertex -1.050000e+01 -1.050000e+01 5.850000e+01
    endloop
  endfacet
  facet normal -5.773503e-01 5.773503e-01 5.773503e-01
    outer loop
      vertex -1.500006e+00 -1.499991e+00 5.850000e+01
      vertex -7.500000e+00 -1.499991e+00 5.250000e+01
      vertex -1.050000e+01 -1.050000e+01 5.850000e+01
    endloop
  endfacet
  facet normal -5.773503e-01 5.773503e-01 5.773503e-01
    outer loop
      vertex -1.050000e+01 -1.050000e+01 5.850000e+01
      vertex -7.500000e+00 -1.499991e+00 5.250000e+01
      vertex -1.050000e+01 -4.500003e+00 5.250000e+01
    endloop
  endfacet
  facet normal -4.163336e-15 -4.163336e-15 1.000000e+00
    outer loop
      vertex 7.500000e+00 1.500006e+00 1.125000e+01
      vertex 7.500000e+00 -4.500003e+00 1.125000e+01
      vertex 1.050000e+01 -1.499991e+00 1.125000e+01
    endloop
  endfacet
  facet normal 2.760249e-15 -2.760249e-15 -1.000000e+00
    outer loop
      vertex 1.050000e+01 -7.500000e+00 5.023559e-14
      vertex 7.500000e+00 -1.050000e+01 5.023559e-14
      vertex -1.500006e+00 -1.499991e+00 5.510945e-16
    endloop
  endfacet
  facet normal 3.654819e-15 -9.711103e-16 -1.000000e+00
    outer loop
      vertex 1.499991e+00 1.500006e+00 8.602223e-15
      vertex 1.050000e+01 -7.500000e+00 5.023559e-14
      vertex -1.500006e+00 -1.499991e+00 5.510945e-16
    endloop
  endfacet
  facet normal 1.865680e-15 -2.760249e-15 -1.000000e+00
    outer loop
      vertex 1.499991e+00 1.500006e+00 8.602223e-15
      vertex 1.050000e+01 1.050000e+01 5.510945e-16
      vertex 1.050000e+01 -7.500000e+00 5.023559e-14
    endloop
  endfacet
  facet normal 4.779010e-16 -1.372471e-15 -1.000000e+00
    outer loop
      vertex 1.499991e+00 1.500006e+00 8.602223e-15
      vertex 1.499991e+00 7.500000e+00 3.673952e-16
      vertex 1.050000e+01 1.050000e+01 5.510945e-16
    endloop
  endfacet
  facet normal -2.696302e-31 6.123235e-17 -1.000000e+00
    outer loop
      vertex 1.050000e+01 1.050000e+01 5.510945e-16
      vertex 1.499991e+00 7.500000e+00 3.673952e-16
      vertex 4.500003e+00 1.050000e+01 5.510945e-16
    endloop
  endfacet
  facet normal 2.790866e-15 -2.729633e-15 -1.000000e+00
    outer loop
      vertex 7.500000e+00 -1.050000e+01 5.023559e-14
      vertex -1.050000e+01 -1.050000e+01 0.000000e+00
      vertex -1.500006e+00 -1.499991e+00 5.510945e-16
    endloop
  endfacet
  facet normal -9.886440e-31 6.123235e-17 -1.000000e+00
    outer loop
      vertex -1.500006e+00 -1.499991e+00 5.510945e-16
      vertex -1.050000e+01 -1.050000e+01 0.000000e+00
      vertex -1.050000e+01 -4.500003e+00 3.673952e-16
    endloop
  endfacet
  facet normal -2.719262e-31 6.123235e-17 -1.000000e+00
    outer loop
      vertex -7.500000e+00 -1.499991e+00 5.510945e-16
      vertex -1.500006e+00 -1.499991e+00 5.510945e-16
      vertex -1.050000e+01 -4.500003e+00 3.673952e-16
    endloop
  endfacet
  facet normal 4.163336e-15 4.163336e-15 1.000000e+00
    outer loop
      vertex 4.500003e+00 -7.500000e+00 1.125000e+01
      vertex -1.500006e+00 -7.500000e+00 1.125000e+01
      vertex 1.499991e+00 -1.050000e+01 1.125000e+01
    endloop
  endfacet
endsolid Default
