solid OpenSCAD_Model
  facet normal -1 0 -0
    outer loop
      vertex -16.25 8.40154 11.1954
      vertex -16.25 -0.625 16.25
      vertex -16.25 15.625 16.25
    endloop
  endfacet
  facet normal -1 0 -0
    outer loop
      vertex -16.25 -0.625 0
      vertex -16.25 -0.625 16.25
      vertex -16.25 4.33257 8.58041
    endloop
  endfacet
  facet normal -1 0 0
    outer loop
      vertex -16.25 -0.625 0
      vertex -16.25 4.33257 8.58041
      vertex -16.25 4.58918 6.79567
    endloop
  endfacet
  facet normal -1 0 0
    outer loop
      vertex -16.25 -0.625 0
      vertex -16.25 4.58918 6.79567
      vertex -16.25 5.76995 5.43299
    endloop
  endfacet
  facet normal -1 -0 0
    outer loop
      vertex -16.25 -0.625 0
      vertex -16.25 5.76995 5.43299
      vertex -16.25 15.625 0
    endloop
  endfacet
  facet normal -1 0 0
    outer loop
      vertex -16.25 5.76995 5.43299
      vertex -16.25 7.5 4.925
      vertex -16.25 15.625 0
    endloop
  endfacet
  facet normal -1 0 0
    outer loop
      vertex -16.25 9.23005 5.43299
      vertex -16.25 15.625 0
      vertex -16.25 7.5 4.925
    endloop
  endfacet
  facet normal -1 0 0
    outer loop
      vertex -16.25 10.4108 6.79567
      vertex -16.25 15.625 0
      vertex -16.25 9.23005 5.43299
    endloop
  endfacet
  facet normal -1 -0 -0
    outer loop
      vertex -16.25 6.59846 11.1954
      vertex -16.25 -0.625 16.25
      vertex -16.25 8.40154 11.1954
    endloop
  endfacet
  facet normal -1 0 0
    outer loop
      vertex -16.25 15.625 0
      vertex -16.25 10.4108 6.79567
      vertex -16.25 15.625 16.25
    endloop
  endfacet
  facet normal -1 0 -0
    outer loop
      vertex -16.25 5.0816 10.2206
      vertex -16.25 -0.625 16.25
      vertex -16.25 6.59846 11.1954
    endloop
  endfacet
  facet normal -1 0 0
    outer loop
      vertex -16.25 10.4108 6.79567
      vertex -16.25 10.6674 8.58041
      vertex -16.25 15.625 16.25
    endloop
  endfacet
  facet normal -1 0 -0
    outer loop
      vertex -16.25 10.6674 8.58041
      vertex -16.25 9.9184 10.2206
      vertex -16.25 15.625 16.25
    endloop
  endfacet
  facet normal -1 0 -0
    outer loop
      vertex -16.25 9.9184 10.2206
      vertex -16.25 8.40154 11.1954
      vertex -16.25 15.625 16.25
    endloop
  endfacet
  facet normal -1 0 -0
    outer loop
      vertex -16.25 4.33257 8.58041
      vertex -16.25 -0.625 16.25
      vertex -16.25 5.0816 10.2206
    endloop
  endfacet
  facet normal 0 -1 0
    outer loop
      vertex -16.25 -0.625 16.25
      vertex -16.25 -0.625 0
      vertex -8.16258 -0.625 0
    endloop
  endfacet
  facet normal 0 -1 0
    outer loop
      vertex -8.16258 -0.625 16.25
      vertex -16.25 -0.625 16.25
      vertex -8.16258 -0.625 0
    endloop
  endfacet
  facet normal -0 -0 -1
    outer loop
      vertex -16.25 -0.625 0
      vertex -16.25 15.625 0
      vertex -8.16258 -0.625 0
    endloop
  endfacet
  facet normal 0 0 -1
    outer loop
      vertex -8.16258 -0.625 0
      vertex -16.25 15.625 0
      vertex -8.16258 15.625 0
    endloop
  endfacet
  facet normal 0 -0 -1
    outer loop
      vertex -8.16258 -0.625 0
      vertex -8.16258 15.625 0
      vertex -7.49864 17.6684 0
    endloop
  endfacet
  facet normal 0 0 -1
    outer loop
      vertex -8.16258 -0.625 0
      vertex -7.49864 17.6684 0
      vertex -4.88542 22.1946 0
    endloop
  endfacet
  facet normal 0 0 -1
    outer loop
      vertex -8.16258 -0.625 0
      vertex -4.88542 22.1946 0
      vertex -2 25.3992 0
    endloop
  endfacet
  facet normal 0 -0 -1
    outer loop
      vertex -2 25.3992 0
      vertex -2 35.57 0
      vertex 32.68 35.57 0
    endloop
  endfacet
  facet normal -0 0 -1
    outer loop
      vertex -2 25.3992 0
      vertex 32.68 35.57 0
      vertex -8.16258 -0.625 0
    endloop
  endfacet
  facet normal 0 0 -1
    outer loop
      vertex -8.16258 -0.625 0
      vertex 32.68 35.57 0
      vertex 32.68 25.3992 0
    endloop
  endfacet
  facet normal 0 0 -1
    outer loop
      vertex -8.16258 -0.625 0
      vertex 32.68 25.3992 0
      vertex 35.5654 22.1946 0
    endloop
  endfacet
  facet normal 0 0 -1
    outer loop
      vertex 16.794 10.6837 0
      vertex 35.5654 22.1946 0
      vertex 38.1786 17.6684 0
    endloop
  endfacet
  facet normal 0 0 -1
    outer loop
      vertex 18.2844 5.60776 0
      vertex 39.7937 12.6978 0
      vertex 40.34 7.5 0
    endloop
  endfacet
  facet normal 0 0 -1
    outer loop
      vertex -8.16258 -0.625 0
      vertex 40.34 7.5 0
      vertex 39.7937 2.30221 0
    endloop
  endfacet
  facet normal -0 0 -1
    outer loop
      vertex -8.16258 -0.625 0
      vertex 39.7937 2.30221 0
      vertex 38.1786 -2.66842 0
    endloop
  endfacet
  facet normal 0 0 -1
    outer loop
      vertex -4.88542 -7.19463 0
      vertex 7.61458 -16.2764 0
      vertex -1.38827 -11.0786 0
    endloop
  endfacet
  facet normal 0 0 -1
    outer loop
      vertex -7.49864 -2.66842 0
      vertex 17.9532 -17.363 0
      vertex 12.7268 -17.363 0
    endloop
  endfacet
  facet normal 0 -0 -1
    outer loop
      vertex 11.9818 8.48606 0
      vertex -8.16258 -0.625 0
      vertex 13.048 10.1451 0
    endloop
  endfacet
  facet normal 0 0 -1
    outer loop
      vertex -7.49864 -2.66842 0
      vertex 27.84 -14.1506 0
      vertex 23.0654 -16.2764 0
    endloop
  endfacet
  facet normal 0 0 -1
    outer loop
      vertex 7.61458 -16.2764 0
      vertex 2.84 -14.1506 0
      vertex -1.38827 -11.0786 0
    endloop
  endfacet
  facet normal 0 0 -1
    outer loop
      vertex -7.49864 -2.66842 0
      vertex 23.0654 -16.2764 0
      vertex 17.9532 -17.363 0
    endloop
  endfacet
  facet normal 0 0 -1
    outer loop
      vertex 12.7268 -17.363 0
      vertex 7.61458 -16.2764 0
      vertex -4.88542 -7.19463 0
    endloop
  endfacet
  facet normal 0 0 -1
    outer loop
      vertex 32.0683 -11.0786 0
      vertex 27.84 -14.1506 0
      vertex -7.49864 -2.66842 0
    endloop
  endfacet
  facet normal 0 0 -1
    outer loop
      vertex -7.49864 -2.66842 0
      vertex 12.7268 -17.363 0
      vertex -4.88542 -7.19463 0
    endloop
  endfacet
  facet normal -0 0 -1
    outer loop
      vertex 16.794 10.6837 0
      vertex 38.1786 17.6684 0
      vertex 18.2844 9.39224 0
    endloop
  endfacet
  facet normal -0 0 -1
    outer loop
      vertex 18.2844 5.60776 0
      vertex 40.34 7.5 0
      vertex 16.794 4.31629 0
    endloop
  endfacet
  facet normal 0 0 -1
    outer loop
      vertex -8.16258 -0.625 0
      vertex 13.048 4.85488 0
      vertex 14.8419 4.03562 0
    endloop
  endfacet
  facet normal 0 0 -1
    outer loop
      vertex -8.16258 -0.625 0
      vertex 14.8419 4.03562 0
      vertex 40.34 7.5 0
    endloop
  endfacet
  facet normal 0 0 -1
    outer loop
      vertex 14.8419 4.03562 0
      vertex 16.794 4.31629 0
      vertex 40.34 7.5 0
    endloop
  endfacet
  facet normal -0 0 -1
    outer loop
      vertex 18.2844 9.39224 0
      vertex 39.7937 12.6978 0
      vertex 18.84 7.5 0
    endloop
  endfacet
  facet normal -0 0 -1
    outer loop
      vertex 18.84 7.5 0
      vertex 39.7937 12.6978 0
      vertex 18.2844 5.60776 0
    endloop
  endfacet
  facet normal 0 0 -1
    outer loop
      vertex 18.2844 9.39224 0
      vertex 38.1786 17.6684 0
      vertex 39.7937 12.6978 0
    endloop
  endfacet
  facet normal 0 0 -1
    outer loop
      vertex 13.048 4.85488 0
      vertex -8.16258 -0.625 0
      vertex 11.9818 6.51394 0
    endloop
  endfacet
  facet normal -0 0 -1
    outer loop
      vertex 14.8419 10.9644 0
      vertex 35.5654 22.1946 0
      vertex 16.794 10.6837 0
    endloop
  endfacet
  facet normal 0 0 -1
    outer loop
      vertex 13.048 10.1451 0
      vertex 35.5654 22.1946 0
      vertex 14.8419 10.9644 0
    endloop
  endfacet
  facet normal 0 0 -1
    outer loop
      vertex 11.9818 6.51394 0
      vertex -8.16258 -0.625 0
      vertex 11.9818 8.48606 0
    endloop
  endfacet
  facet normal 0 0 -1
    outer loop
      vertex -8.16258 -0.625 0
      vertex 35.5654 22.1946 0
      vertex 13.048 10.1451 0
    endloop
  endfacet
  facet normal 0 0 -1
    outer loop
      vertex -8.16258 -0.625 0
      vertex 38.1786 -2.66842 0
      vertex 35.5654 -7.19463 0
    endloop
  endfacet
  facet normal 0 0 -1
    outer loop
      vertex -8.16258 -0.625 0
      vertex 35.5654 -7.19463 0
      vertex 32.0683 -11.0786 0
    endloop
  endfacet
  facet normal 0 0 -1
    outer loop
      vertex -8.16258 -0.625 0
      vertex 32.0683 -11.0786 0
      vertex -7.49864 -2.66842 0
    endloop
  endfacet
  facet normal 0 1 0
    outer loop
      vertex -16.25 15.625 0
      vertex -16.25 15.625 16.25
      vertex -8.16258 15.625 0
    endloop
  endfacet
  facet normal 0 1 0
    outer loop
      vertex -8.16258 15.625 0
      vertex -16.25 15.625 16.25
      vertex -8.16258 15.625 16.25
    endloop
  endfacet
  facet normal 0 0 1
    outer loop
      vertex -7.49864 -2.66842 16.25
      vertex -4.88542 -7.19463 16.25
      vertex -8.16258 -0.625 16.25
    endloop
  endfacet
  facet normal 0 -0 1
    outer loop
      vertex -16.25 15.625 16.25
      vertex -16.25 -0.625 16.25
      vertex -8.16258 -0.625 16.25
    endloop
  endfacet
  facet normal 0 0 1
    outer loop
      vertex -4.88542 -7.19463 16.25
      vertex -16.25 15.625 16.25
      vertex -8.16258 -0.625 16.25
    endloop
  endfacet
  facet normal 0 0 1
    outer loop
      vertex -4.88542 -7.19463 16.25
      vertex -1.38827 -11.0786 16.25
      vertex -16.25 15.625 16.25
    endloop
  endfacet
  facet normal 0 0 1
    outer loop
      vertex -1.38827 -11.0786 16.25
      vertex 2.84 -14.1506 16.25
      vertex -16.25 15.625 16.25
    endloop
  endfacet
  facet normal 0 0 1
    outer loop
      vertex 2.84 -14.1506 16.25
      vertex 7.61458 -16.2764 16.25
      vertex -16.25 15.625 16.25
    endloop
  endfacet
  facet normal 0 0 1
    outer loop
      vertex 7.61458 -16.2764 16.25
      vertex 12.7268 -17.363 16.25
      vertex -16.25 15.625 16.25
    endloop
  endfacet
  facet normal 0 0 1
    outer loop
      vertex 12.7268 -17.363 16.25
      vertex 17.9532 -17.363 16.25
      vertex -16.25 15.625 16.25
    endloop
  endfacet
  facet normal 0 0 1
    outer loop
      vertex 30.68 0 16.25
      vertex 35.5654 -7.19463 16.25
      vertex 38.1786 -2.66842 16.25
    endloop
  endfacet
  facet normal 0 0 1
    outer loop
      vertex 30.68 0 16.25
      vertex 32.0683 -11.0786 16.25
      vertex 35.5654 -7.19463 16.25
    endloop
  endfacet
  facet normal 0 0 1
    outer loop
      vertex 30.68 0 16.25
      vertex 0 0 16.25
      vertex 23.0654 -16.2764 16.25
    endloop
  endfacet
  facet normal 0 0 1
    outer loop
      vertex 0 0 16.25
      vertex -7.49864 17.6684 16.25
      vertex -8.16258 15.625 16.25
    endloop
  endfacet
  facet normal 0 0 1
    outer loop
      vertex 32.68 35.57 16.25
      vertex 22.74 35.57 16.25
      vertex 22.74 33.57 16.25
    endloop
  endfacet
  facet normal 0 0 1
    outer loop
      vertex 32.68 25.3992 16.25
      vertex 32.68 35.57 16.25
      vertex 30.68 33.57 16.25
    endloop
  endfacet
  facet normal 0 0 1
    outer loop
      vertex 0 0 16.25
      vertex -8.16258 15.625 16.25
      vertex -16.25 15.625 16.25
    endloop
  endfacet
  facet normal 0 0 1
    outer loop
      vertex 38.1786 -2.66842 16.25
      vertex 39.7937 2.30221 16.25
      vertex 30.68 0 16.25
    endloop
  endfacet
  facet normal 0 0 1
    outer loop
      vertex 17.9532 -17.363 16.25
      vertex 0 0 16.25
      vertex -16.25 15.625 16.25
    endloop
  endfacet
  facet normal 0 0 1
    outer loop
      vertex 17.9532 -17.363 16.25
      vertex 23.0654 -16.2764 16.25
      vertex 0 0 16.25
    endloop
  endfacet
  facet normal -0 0 1
    outer loop
      vertex 7.94 33.57 16.25
      vertex 7.94 35.57 16.25
      vertex 0 33.57 16.25
    endloop
  endfacet
  facet normal 0 -0 1
    outer loop
      vertex -2 35.57 16.25
      vertex -2 25.3992 16.25
      vertex 0 33.57 16.25
    endloop
  endfacet
  facet normal 0 0 1
    outer loop
      vertex 7.94 35.57 16.25
      vertex -2 35.57 16.25
      vertex 0 33.57 16.25
    endloop
  endfacet
  facet normal 0 0 1
    outer loop
      vertex 0 0 16.25
      vertex -4.88542 22.1946 16.25
      vertex -7.49864 17.6684 16.25
    endloop
  endfacet
  facet normal 0 0 1
    outer loop
      vertex 0 0 16.25
      vertex -2 25.3992 16.25
      vertex -4.88542 22.1946 16.25
    endloop
  endfacet
  facet normal 0 -0 1
    outer loop
      vertex 30.68 0 16.25
      vertex 27.84 -14.1506 16.25
      vertex 32.0683 -11.0786 16.25
    endloop
  endfacet
  facet normal 0 0 1
    outer loop
      vertex 30.68 0 16.25
      vertex 23.0654 -16.2764 16.25
      vertex 27.84 -14.1506 16.25
    endloop
  endfacet
  facet normal 0 0 1
    outer loop
      vertex 22.74 33.57 16.25
      vertex 30.68 33.57 16.25
      vertex 32.68 35.57 16.25
    endloop
  endfacet
  facet normal 0 0 1
    outer loop
      vertex 32.68 25.3992 16.25
      vertex 38.1786 17.6684 16.25
      vertex 35.5654 22.1946 16.25
    endloop
  endfacet
  facet normal 0 0 1
    outer loop
      vertex 32.68 25.3992 16.25
      vertex 39.7937 12.6978 16.25
      vertex 38.1786 17.6684 16.25
    endloop
  endfacet
  facet normal 0 0 1
    outer loop
      vertex 32.68 25.3992 16.25
      vertex 40.34 7.5 16.25
      vertex 39.7937 12.6978 16.25
    endloop
  endfacet
  facet normal 0 0 1
    outer loop
      vertex 32.68 25.3992 16.25
      vertex 39.7937 2.30221 16.25
      vertex 40.34 7.5 16.25
    endloop
  endfacet
  facet normal 0 -0 1
    outer loop
      vertex 32.68 25.3992 16.25
      vertex 30.68 0 16.25
      vertex 39.7937 2.30221 16.25
    endloop
  endfacet
  facet normal 0 -0 1
    outer loop
      vertex 30.68 33.57 16.25
      vertex 30.68 0 16.25
      vertex 32.68 25.3992 16.25
    endloop
  endfacet
  facet normal 0 0 1
    outer loop
      vertex 0 0 16.25
      vertex 0 33.57 16.25
      vertex -2 25.3992 16.25
    endloop
  endfacet
  facet normal -1.12357e-017 0.989821 0.142315
    outer loop
      vertex -5 4.58918 6.79567
      vertex -16.25 4.58918 6.79567
      vertex -5 4.33257 8.58041
    endloop
  endfacet
  facet normal -0 0.989821 0.142315
    outer loop
      vertex -5 4.33257 8.58041
      vertex -16.25 4.58918 6.79567
      vertex -16.25 4.33257 8.58041
    endloop
  endfacet
  facet normal 0 0.909632 -0.415415
    outer loop
      vertex -5 5.0816 10.2206
      vertex -5 4.33257 8.58041
      vertex -16.25 5.0816 10.2206
    endloop
  endfacet
  facet normal -5.07878e-018 0.909632 -0.415415
    outer loop
      vertex -16.25 5.0816 10.2206
      vertex -5 4.33257 8.58041
      vertex -16.25 4.33257 8.58041
    endloop
  endfacet
  facet normal 0 0.540641 -0.841253
    outer loop
      vertex -5 6.59846 11.1954
      vertex -5 5.0816 10.2206
      vertex -16.25 6.59846 11.1954
    endloop
  endfacet
  facet normal -3.3929e-018 0.540641 -0.841253
    outer loop
      vertex -16.25 6.59846 11.1954
      vertex -5 5.0816 10.2206
      vertex -16.25 5.0816 10.2206
    endloop
  endfacet
  facet normal 0 0 -1
    outer loop
      vertex -5 8.40154 11.1954
      vertex -5 6.59846 11.1954
      vertex -16.25 8.40154 11.1954
    endloop
  endfacet
  facet normal 0 0 -1
    outer loop
      vertex -16.25 8.40154 11.1954
      vertex -5 6.59846 11.1954
      vertex -16.25 6.59846 11.1954
    endloop
  endfacet
  facet normal 0 -0.540641 -0.841253
    outer loop
      vertex -5 9.9184 10.2206
      vertex -5 8.40154 11.1954
      vertex -16.25 9.9184 10.2206
    endloop
  endfacet
  facet normal 3.3929e-018 -0.540641 -0.841253
    outer loop
      vertex -16.25 9.9184 10.2206
      vertex -5 8.40154 11.1954
      vertex -16.25 8.40154 11.1954
    endloop
  endfacet
  facet normal -0 -0.909632 -0.415415
    outer loop
      vertex -16.25 10.6674 8.58041
      vertex -5 10.6674 8.58041
      vertex -5 9.9184 10.2206
    endloop
  endfacet
  facet normal -0 -0.909632 -0.415415
    outer loop
      vertex -16.25 9.9184 10.2206
      vertex -16.25 10.6674 8.58041
      vertex -5 9.9184 10.2206
    endloop
  endfacet
  facet normal 8.3237e-020 -0.989821 0.142315
    outer loop
      vertex -5 10.4108 6.79567
      vertex -5 10.6674 8.58041
      vertex -16.25 10.6674 8.58041
    endloop
  endfacet
  facet normal -1.12357e-017 -0.989821 0.142315
    outer loop
      vertex -16.25 10.4108 6.79567
      vertex -5 10.4108 6.79567
      vertex -16.25 10.6674 8.58041
    endloop
  endfacet
  facet normal -4.72152e-017 -0.75575 0.654861
    outer loop
      vertex -5 9.23005 5.43299
      vertex -5 10.4108 6.79567
      vertex -16.25 10.4108 6.79567
    endloop
  endfacet
  facet normal -5.17007e-017 -0.75575 0.654861
    outer loop
      vertex -16.25 9.23005 5.43299
      vertex -5 9.23005 5.43299
      vertex -16.25 10.4108 6.79567
    endloop
  endfacet
  facet normal -7.74183e-017 -0.281733 0.959493
    outer loop
      vertex -5 7.5 4.925
      vertex -5 9.23005 5.43299
      vertex -16.25 9.23005 5.43299
    endloop
  endfacet
  facet normal -7.57512e-017 -0.281733 0.959493
    outer loop
      vertex -16.25 7.5 4.925
      vertex -5 7.5 4.925
      vertex -16.25 9.23005 5.43299
    endloop
  endfacet
  facet normal -7.22973e-017 0.281733 0.959493
    outer loop
      vertex -5 5.76995 5.43299
      vertex -5 7.5 4.925
      vertex -16.25 7.5 4.925
    endloop
  endfacet
  facet normal -7.57512e-017 0.281733 0.959493
    outer loop
      vertex -16.25 5.76995 5.43299
      vertex -5 5.76995 5.43299
      vertex -16.25 7.5 4.925
    endloop
  endfacet
  facet normal -5.17007e-017 0.75575 0.654861
    outer loop
      vertex -5 5.76995 5.43299
      vertex -16.25 5.76995 5.43299
      vertex -5 4.58918 6.79567
    endloop
  endfacet
  facet normal -5.17007e-017 0.75575 0.654861
    outer loop
      vertex -5 4.58918 6.79567
      vertex -16.25 5.76995 5.43299
      vertex -16.25 4.58918 6.79567
    endloop
  endfacet
  facet normal -0.951056 -0.309017 -0
    outer loop
      vertex -8.16258 -0.625 0
      vertex -7.49864 -2.66842 0
      vertex -8.16258 -0.625 16.25
    endloop
  endfacet
  facet normal -0.951056 -0.309017 0
    outer loop
      vertex -8.16258 -0.625 16.25
      vertex -7.49864 -2.66842 0
      vertex -7.49864 -2.66842 16.25
    endloop
  endfacet
  facet normal -0.866025 -0.5 -0
    outer loop
      vertex -7.49864 -2.66842 0
      vertex -4.88542 -7.19463 0
      vertex -7.49864 -2.66842 16.25
    endloop
  endfacet
  facet normal -0.866025 -0.5 0
    outer loop
      vertex -7.49864 -2.66842 16.25
      vertex -4.88542 -7.19463 0
      vertex -4.88542 -7.19463 16.25
    endloop
  endfacet
  facet normal -0.743145 -0.669131 -0
    outer loop
      vertex -4.88542 -7.19463 0
      vertex -1.38827 -11.0786 0
      vertex -4.88542 -7.19463 16.25
    endloop
  endfacet
  facet normal -0.743145 -0.669131 0
    outer loop
      vertex -4.88542 -7.19463 16.25
      vertex -1.38827 -11.0786 0
      vertex -1.38827 -11.0786 16.25
    endloop
  endfacet
  facet normal -0.587785 -0.809017 0
    outer loop
      vertex -1.38827 -11.0786 16.25
      vertex -1.38827 -11.0786 0
      vertex 2.84 -14.1506 0
    endloop
  endfacet
  facet normal -0.587785 -0.809017 0
    outer loop
      vertex 2.84 -14.1506 16.25
      vertex -1.38827 -11.0786 16.25
      vertex 2.84 -14.1506 0
    endloop
  endfacet
  facet normal -0.406737 -0.913545 0
    outer loop
      vertex 2.84 -14.1506 16.25
      vertex 2.84 -14.1506 0
      vertex 7.61458 -16.2764 0
    endloop
  endfacet
  facet normal -0.406737 -0.913545 0
    outer loop
      vertex 7.61458 -16.2764 16.25
      vertex 2.84 -14.1506 16.25
      vertex 7.61458 -16.2764 0
    endloop
  endfacet
  facet normal -0.207912 -0.978148 0
    outer loop
      vertex 7.61458 -16.2764 16.25
      vertex 7.61458 -16.2764 0
      vertex 12.7268 -17.363 0
    endloop
  endfacet
  facet normal -0.207912 -0.978148 0
    outer loop
      vertex 12.7268 -17.363 16.25
      vertex 7.61458 -16.2764 16.25
      vertex 12.7268 -17.363 0
    endloop
  endfacet
  facet normal 0 -1 0
    outer loop
      vertex 12.7268 -17.363 16.25
      vertex 12.7268 -17.363 0
      vertex 17.9532 -17.363 0
    endloop
  endfacet
  facet normal 0 -1 0
    outer loop
      vertex 17.9532 -17.363 16.25
      vertex 12.7268 -17.363 16.25
      vertex 17.9532 -17.363 0
    endloop
  endfacet
  facet normal 0.207912 -0.978148 0
    outer loop
      vertex 17.9532 -17.363 16.25
      vertex 17.9532 -17.363 0
      vertex 23.0654 -16.2764 0
    endloop
  endfacet
  facet normal 0.207912 -0.978148 0
    outer loop
      vertex 23.0654 -16.2764 16.25
      vertex 17.9532 -17.363 16.25
      vertex 23.0654 -16.2764 0
    endloop
  endfacet
  facet normal 0.406737 -0.913545 0
    outer loop
      vertex 23.0654 -16.2764 16.25
      vertex 23.0654 -16.2764 0
      vertex 27.84 -14.1506 0
    endloop
  endfacet
  facet normal 0.406737 -0.913545 0
    outer loop
      vertex 27.84 -14.1506 16.25
      vertex 23.0654 -16.2764 16.25
      vertex 27.84 -14.1506 0
    endloop
  endfacet
  facet normal 0.587785 -0.809017 0
    outer loop
      vertex 27.84 -14.1506 16.25
      vertex 27.84 -14.1506 0
      vertex 32.0683 -11.0786 0
    endloop
  endfacet
  facet normal 0.587785 -0.809017 0
    outer loop
      vertex 32.0683 -11.0786 16.25
      vertex 27.84 -14.1506 16.25
      vertex 32.0683 -11.0786 0
    endloop
  endfacet
  facet normal 0.743145 -0.669131 0
    outer loop
      vertex 32.0683 -11.0786 16.25
      vertex 32.0683 -11.0786 0
      vertex 35.5654 -7.19463 0
    endloop
  endfacet
  facet normal 0.743145 -0.669131 0
    outer loop
      vertex 35.5654 -7.19463 16.25
      vertex 32.0683 -11.0786 16.25
      vertex 35.5654 -7.19463 0
    endloop
  endfacet
  facet normal 0.866025 -0.5 0
    outer loop
      vertex 35.5654 -7.19463 16.25
      vertex 35.5654 -7.19463 0
      vertex 38.1786 -2.66842 0
    endloop
  endfacet
  facet normal 0.866025 -0.5 0
    outer loop
      vertex 38.1786 -2.66842 16.25
      vertex 35.5654 -7.19463 16.25
      vertex 38.1786 -2.66842 0
    endloop
  endfacet
  facet normal 0.951056 -0.309017 0
    outer loop
      vertex 38.1786 -2.66842 16.25
      vertex 38.1786 -2.66842 0
      vertex 39.7937 2.30221 0
    endloop
  endfacet
  facet normal 0.951056 -0.309017 0
    outer loop
      vertex 39.7937 2.30221 16.25
      vertex 38.1786 -2.66842 16.25
      vertex 39.7937 2.30221 0
    endloop
  endfacet
  facet normal 0.994522 -0.104528 0
    outer loop
      vertex 39.7937 2.30221 16.25
      vertex 39.7937 2.30221 0
      vertex 40.34 7.5 0
    endloop
  endfacet
  facet normal 0.994522 -0.104528 0
    outer loop
      vertex 40.34 7.5 16.25
      vertex 39.7937 2.30221 16.25
      vertex 40.34 7.5 0
    endloop
  endfacet
  facet normal 0.994522 0.104528 0
    outer loop
      vertex 40.34 7.5 0
      vertex 39.7937 12.6978 0
      vertex 39.7937 12.6978 16.25
    endloop
  endfacet
  facet normal 0.994522 0.104528 -0
    outer loop
      vertex 40.34 7.5 16.25
      vertex 40.34 7.5 0
      vertex 39.7937 12.6978 16.25
    endloop
  endfacet
  facet normal 0.951056 0.309017 0
    outer loop
      vertex 39.7937 12.6978 0
      vertex 38.1786 17.6684 0
      vertex 38.1786 17.6684 16.25
    endloop
  endfacet
  facet normal 0.951056 0.309017 -0
    outer loop
      vertex 39.7937 12.6978 16.25
      vertex 39.7937 12.6978 0
      vertex 38.1786 17.6684 16.25
    endloop
  endfacet
  facet normal 0.866025 0.5 0
    outer loop
      vertex 38.1786 17.6684 0
      vertex 35.5654 22.1946 0
      vertex 35.5654 22.1946 16.25
    endloop
  endfacet
  facet normal 0.866025 0.5 -0
    outer loop
      vertex 38.1786 17.6684 16.25
      vertex 38.1786 17.6684 0
      vertex 35.5654 22.1946 16.25
    endloop
  endfacet
  facet normal 0.743145 0.669131 0
    outer loop
      vertex 35.5654 22.1946 0
      vertex 32.68 25.3992 0
      vertex 32.68 25.3992 16.25
    endloop
  endfacet
  facet normal 0.743145 0.669131 -0
    outer loop
      vertex 35.5654 22.1946 16.25
      vertex 35.5654 22.1946 0
      vertex 32.68 25.3992 16.25
    endloop
  endfacet
  facet normal 1 0 -0
    outer loop
      vertex 32.68 25.3992 16.25
      vertex 32.68 25.3992 0
      vertex 32.68 35.57 0
    endloop
  endfacet
  facet normal 1 0 0
    outer loop
      vertex 32.68 35.57 16.25
      vertex 32.68 25.3992 16.25
      vertex 32.68 35.57 0
    endloop
  endfacet
  facet normal 0 1 0
    outer loop
      vertex -2 35.57 0
      vertex -2 35.57 16.25
      vertex 7.94 35.57 2
    endloop
  endfacet
  facet normal 0 1 0
    outer loop
      vertex -2 35.57 0
      vertex 7.94 35.57 2
      vertex 32.68 35.57 0
    endloop
  endfacet
  facet normal 0 1 -0
    outer loop
      vertex 22.74 35.57 16.25
      vertex 32.68 35.57 0
      vertex 22.74 35.57 2
    endloop
  endfacet
  facet normal 0 1 0
    outer loop
      vertex 7.94 35.57 2
      vertex 22.74 35.57 2
      vertex 32.68 35.57 0
    endloop
  endfacet
  facet normal 0 1 0
    outer loop
      vertex 32.68 35.57 0
      vertex 22.74 35.57 16.25
      vertex 32.68 35.57 16.25
    endloop
  endfacet
  facet normal 0 1 0
    outer loop
      vertex 7.94 35.57 2
      vertex -2 35.57 16.25
      vertex 7.94 35.57 16.25
    endloop
  endfacet
  facet normal -1 -0 -0
    outer loop
      vertex -2 25.3992 0
      vertex -2 25.3992 16.25
      vertex -2 35.57 0
    endloop
  endfacet
  facet normal -1 0 0
    outer loop
      vertex -2 35.57 0
      vertex -2 25.3992 16.25
      vertex -2 35.57 16.25
    endloop
  endfacet
  facet normal -0.743145 0.669131 0
    outer loop
      vertex -4.88542 22.1946 0
      vertex -4.88542 22.1946 16.25
      vertex -2 25.3992 0
    endloop
  endfacet
  facet normal -0.743145 0.669131 0
    outer loop
      vertex -2 25.3992 0
      vertex -4.88542 22.1946 16.25
      vertex -2 25.3992 16.25
    endloop
  endfacet
  facet normal -0.866025 0.5 0
    outer loop
      vertex -7.49864 17.6684 0
      vertex -7.49864 17.6684 16.25
      vertex -4.88542 22.1946 0
    endloop
  endfacet
  facet normal -0.866025 0.5 0
    outer loop
      vertex -4.88542 22.1946 0
      vertex -7.49864 17.6684 16.25
      vertex -4.88542 22.1946 16.25
    endloop
  endfacet
  facet normal -0.951056 0.309017 0
    outer loop
      vertex -8.16258 15.625 0
      vertex -8.16258 15.625 16.25
      vertex -7.49864 17.6684 0
    endloop
  endfacet
  facet normal -0.951056 0.309017 0
    outer loop
      vertex -7.49864 17.6684 0
      vertex -8.16258 15.625 16.25
      vertex -7.49864 17.6684 16.25
    endloop
  endfacet
  facet normal 1 0 0
    outer loop
      vertex 11.9818 8.48606 0
      vertex 11.9818 8.48606 2
      vertex 11.9818 6.51394 2
    endloop
  endfacet
  facet normal 1 0 0
    outer loop
      vertex 11.9818 6.51394 0
      vertex 11.9818 8.48606 0
      vertex 11.9818 6.51394 2
    endloop
  endfacet
  facet normal 0.841254 -0.54064 0
    outer loop
      vertex 13.048 10.1451 0
      vertex 13.048 10.1451 2
      vertex 11.9818 8.48606 2
    endloop
  endfacet
  facet normal 0.841254 -0.54064 0
    outer loop
      vertex 11.9818 8.48606 0
      vertex 13.048 10.1451 0
      vertex 11.9818 8.48606 2
    endloop
  endfacet
  facet normal 0.415415 -0.909632 0
    outer loop
      vertex 14.8419 10.9644 0
      vertex 14.8419 10.9644 2
      vertex 13.048 10.1451 2
    endloop
  endfacet
  facet normal 0.415415 -0.909632 0
    outer loop
      vertex 13.048 10.1451 0
      vertex 14.8419 10.9644 0
      vertex 13.048 10.1451 2
    endloop
  endfacet
  facet normal -0.142315 -0.989821 -0
    outer loop
      vertex 16.794 10.6837 0
      vertex 16.794 10.6837 2
      vertex 14.8419 10.9644 2
    endloop
  endfacet
  facet normal -0.142315 -0.989821 -0
    outer loop
      vertex 14.8419 10.9644 0
      vertex 16.794 10.6837 0
      vertex 14.8419 10.9644 2
    endloop
  endfacet
  facet normal -0.654861 -0.755749 -0
    outer loop
      vertex 18.2844 9.39224 0
      vertex 18.2844 9.39224 2
      vertex 16.794 10.6837 2
    endloop
  endfacet
  facet normal -0.654861 -0.755749 -0
    outer loop
      vertex 16.794 10.6837 0
      vertex 18.2844 9.39224 0
      vertex 16.794 10.6837 2
    endloop
  endfacet
  facet normal -0.959493 -0.281733 0
    outer loop
      vertex 18.84 7.5 2
      vertex 18.2844 9.39224 2
      vertex 18.84 7.5 0
    endloop
  endfacet
  facet normal -0.959493 -0.281733 0
    outer loop
      vertex 18.84 7.5 0
      vertex 18.2844 9.39224 2
      vertex 18.2844 9.39224 0
    endloop
  endfacet
  facet normal -0.959493 0.281733 0
    outer loop
      vertex 18.84 7.5 2
      vertex 18.84 7.5 0
      vertex 18.2844 5.60776 2
    endloop
  endfacet
  facet normal -0.959493 0.281733 0
    outer loop
      vertex 18.2844 5.60776 2
      vertex 18.84 7.5 0
      vertex 18.2844 5.60776 0
    endloop
  endfacet
  facet normal -0.654861 0.755749 0
    outer loop
      vertex 18.2844 5.60776 2
      vertex 18.2844 5.60776 0
      vertex 16.794 4.31629 2
    endloop
  endfacet
  facet normal -0.654861 0.755749 0
    outer loop
      vertex 16.794 4.31629 2
      vertex 18.2844 5.60776 0
      vertex 16.794 4.31629 0
    endloop
  endfacet
  facet normal -0.142315 0.989821 0
    outer loop
      vertex 16.794 4.31629 2
      vertex 16.794 4.31629 0
      vertex 14.8419 4.03562 2
    endloop
  endfacet
  facet normal -0.142315 0.989821 0
    outer loop
      vertex 14.8419 4.03562 2
      vertex 16.794 4.31629 0
      vertex 14.8419 4.03562 0
    endloop
  endfacet
  facet normal 0.415415 0.909632 -0
    outer loop
      vertex 14.8419 4.03562 2
      vertex 14.8419 4.03562 0
      vertex 13.048 4.85488 2
    endloop
  endfacet
  facet normal 0.415415 0.909632 -0
    outer loop
      vertex 13.048 4.85488 2
      vertex 14.8419 4.03562 0
      vertex 13.048 4.85488 0
    endloop
  endfacet
  facet normal 0.841254 0.54064 0
    outer loop
      vertex 11.9818 6.51394 2
      vertex 13.048 4.85488 2
      vertex 13.048 4.85488 0
    endloop
  endfacet
  facet normal 0.841254 0.54064 0
    outer loop
      vertex 11.9818 6.51394 0
      vertex 11.9818 6.51394 2
      vertex 13.048 4.85488 0
    endloop
  endfacet
  facet normal 1 0 0
    outer loop
      vertex 7.94 35.57 2
      vertex 7.94 35.57 16.25
      vertex 7.94 33.57 16.25
    endloop
  endfacet
  facet normal 1 0 0
    outer loop
      vertex 7.94 0 11.25
      vertex 7.94 35.57 2
      vertex 7.94 33.57 11.25
    endloop
  endfacet
  facet normal 1 0 0
    outer loop
      vertex 7.94 33.57 11.25
      vertex 7.94 35.57 2
      vertex 7.94 33.57 16.25
    endloop
  endfacet
  facet normal 1 0 0
    outer loop
      vertex 7.94 0 2
      vertex 7.94 35.57 2
      vertex 7.94 0 11.25
    endloop
  endfacet
  facet normal 0 -1 0
    outer loop
      vertex 7.94 33.57 11.25
      vertex 7.94 33.57 16.25
      vertex 0 33.57 16.25
    endloop
  endfacet
  facet normal -0 -1 -0
    outer loop
      vertex 0 33.57 11.25
      vertex 7.94 33.57 11.25
      vertex 0 33.57 16.25
    endloop
  endfacet
  facet normal 1 0 0
    outer loop
      vertex 0 33.57 11.25
      vertex 0 33.57 16.25
      vertex 0 0 16.25
    endloop
  endfacet
  facet normal 1 0 0
    outer loop
      vertex 0 0 11.25
      vertex 0 33.57 11.25
      vertex 0 0 16.25
    endloop
  endfacet
  facet normal 0 1 0
    outer loop
      vertex 30.68 0 16.25
      vertex 30.68 0 11.25
      vertex 0 0 16.25
    endloop
  endfacet
  facet normal 0 1 0
    outer loop
      vertex 0 0 16.25
      vertex 30.68 0 11.25
      vertex 22.74 0 11.25
    endloop
  endfacet
  facet normal 0 1 0
    outer loop
      vertex 0 0 16.25
      vertex 22.74 0 11.25
      vertex 22.74 0 2
    endloop
  endfacet
  facet normal 0 1 -0
    outer loop
      vertex 7.94 0 11.25
      vertex 22.74 0 2
      vertex 7.94 0 2
    endloop
  endfacet
  facet normal 0 1 0
    outer loop
      vertex 0 0 16.25
      vertex 22.74 0 2
      vertex 7.94 0 11.25
    endloop
  endfacet
  facet normal 0 1 0
    outer loop
      vertex 0 0 11.25
      vertex 0 0 16.25
      vertex 7.94 0 11.25
    endloop
  endfacet
  facet normal -1 0 0
    outer loop
      vertex 30.68 33.57 16.25
      vertex 30.68 33.57 11.25
      vertex 30.68 0 16.25
    endloop
  endfacet
  facet normal -1 0 0
    outer loop
      vertex 30.68 0 16.25
      vertex 30.68 33.57 11.25
      vertex 30.68 0 11.25
    endloop
  endfacet
  facet normal 0 -1 0
    outer loop
      vertex 30.68 33.57 11.25
      vertex 30.68 33.57 16.25
      vertex 22.74 33.57 16.25
    endloop
  endfacet
  facet normal -0 -1 -0
    outer loop
      vertex 22.74 33.57 11.25
      vertex 30.68 33.57 11.25
      vertex 22.74 33.57 16.25
    endloop
  endfacet
  facet normal -1 0 -0
    outer loop
      vertex 22.74 33.57 11.25
      vertex 22.74 33.57 16.25
      vertex 22.74 35.57 16.25
    endloop
  endfacet
  facet normal -1 -0 0
    outer loop
      vertex 22.74 33.57 11.25
      vertex 22.74 35.57 16.25
      vertex 22.74 35.57 2
    endloop
  endfacet
  facet normal -1 0 0
    outer loop
      vertex 22.74 33.57 11.25
      vertex 22.74 35.57 2
      vertex 22.74 0 11.25
    endloop
  endfacet
  facet normal -1 0 0
    outer loop
      vertex 22.74 35.57 2
      vertex 22.74 0 2
      vertex 22.74 0 11.25
    endloop
  endfacet
  facet normal -1 0 0
    outer loop
      vertex -5 9.9184 10.2206
      vertex -5 10.6674 8.58041
      vertex -5 8.40154 11.1954
    endloop
  endfacet
  facet normal -1 -4.92587e-016 -4.26829e-016
    outer loop
      vertex -5 8.40154 11.1954
      vertex -5 10.6674 8.58041
      vertex -5 10.4108 6.79567
    endloop
  endfacet
  facet normal -1 1.52565e-016 -1.32198e-016
    outer loop
      vertex -5 8.40154 11.1954
      vertex -5 10.4108 6.79567
      vertex -5 9.23005 5.43299
    endloop
  endfacet
  facet normal -1 4.34245e-017 -1.4789e-016
    outer loop
      vertex -5 8.40154 11.1954
      vertex -5 9.23005 5.43299
      vertex -5 7.5 4.925
    endloop
  endfacet
  facet normal -1 -3.99065e-017 -1.35909e-016
    outer loop
      vertex -5 8.40154 11.1954
      vertex -5 7.5 4.925
      vertex -5 5.76995 5.43299
    endloop
  endfacet
  facet normal -1 -1.16487e-016 -1.00936e-016
    outer loop
      vertex -5 8.40154 11.1954
      vertex -5 5.76995 5.43299
      vertex -5 4.58918 6.79567
    endloop
  endfacet
  facet normal -1 2.9277e-016 -4.55559e-016
    outer loop
      vertex -5 8.40154 11.1954
      vertex -5 4.58918 6.79567
      vertex -5 4.33257 8.58041
    endloop
  endfacet
  facet normal -1 0 0
    outer loop
      vertex -5 8.40154 11.1954
      vertex -5 4.33257 8.58041
      vertex -5 5.0816 10.2206
    endloop
  endfacet
  facet normal -1 0 0
    outer loop
      vertex -5 8.40154 11.1954
      vertex -5 5.0816 10.2206
      vertex -5 6.59846 11.1954
    endloop
  endfacet
  facet normal 0 0 1
    outer loop
      vertex 22.74 0 2
      vertex 22.74 35.57 2
      vertex 7.94 35.57 2
    endloop
  endfacet
  facet normal 0 0 1
    outer loop
      vertex 18.2844 9.39224 2
      vertex 22.74 0 2
      vertex 7.94 35.57 2
    endloop
  endfacet
  facet normal 0 0 1
    outer loop
      vertex 7.94 0 2
      vertex 11.9818 8.48606 2
      vertex 7.94 35.57 2
    endloop
  endfacet
  facet normal 0 0 1
    outer loop
      vertex 11.9818 8.48606 2
      vertex 13.048 10.1451 2
      vertex 7.94 35.57 2
    endloop
  endfacet
  facet normal 0 0 1
    outer loop
      vertex 13.048 10.1451 2
      vertex 14.8419 10.9644 2
      vertex 7.94 35.57 2
    endloop
  endfacet
  facet normal 0 0 1
    outer loop
      vertex 14.8419 10.9644 2
      vertex 16.794 10.6837 2
      vertex 7.94 35.57 2
    endloop
  endfacet
  facet normal 0 0 1
    outer loop
      vertex 16.794 10.6837 2
      vertex 18.2844 9.39224 2
      vertex 7.94 35.57 2
    endloop
  endfacet
  facet normal 0 0 1
    outer loop
      vertex 18.84 7.5 2
      vertex 22.74 0 2
      vertex 18.2844 9.39224 2
    endloop
  endfacet
  facet normal 0 -0 1
    outer loop
      vertex 18.2844 5.60776 2
      vertex 16.794 4.31629 2
      vertex 22.74 0 2
    endloop
  endfacet
  facet normal 0 0 1
    outer loop
      vertex 7.94 0 2
      vertex 22.74 0 2
      vertex 16.794 4.31629 2
    endloop
  endfacet
  facet normal 0 0 1
    outer loop
      vertex 7.94 0 2
      vertex 16.794 4.31629 2
      vertex 14.8419 4.03562 2
    endloop
  endfacet
  facet normal 0 0 1
    outer loop
      vertex 7.94 0 2
      vertex 14.8419 4.03562 2
      vertex 13.048 4.85488 2
    endloop
  endfacet
  facet normal 0 0 1
    outer loop
      vertex 7.94 0 2
      vertex 11.9818 6.51394 2
      vertex 11.9818 8.48606 2
    endloop
  endfacet
  facet normal 0 0 1
    outer loop
      vertex 7.94 0 2
      vertex 13.048 4.85488 2
      vertex 11.9818 6.51394 2
    endloop
  endfacet
  facet normal 0 -0 1
    outer loop
      vertex 18.84 7.5 2
      vertex 18.2844 5.60776 2
      vertex 22.74 0 2
    endloop
  endfacet
  facet normal 0 0 1
    outer loop
      vertex 2.9125 30.8723 11.25
      vertex 7.94 33.57 11.25
      vertex 0 33.57 11.25
    endloop
  endfacet
  facet normal 0 0 1
    outer loop
      vertex 4.5375 5.51229 11.25
      vertex 7.94 0 11.25
      vertex 0 33.57 11.25
    endloop
  endfacet
  facet normal 0 0 1
    outer loop
      vertex 0 0 11.25
      vertex 2.1 4.105 11.25
      vertex 0 33.57 11.25
    endloop
  endfacet
  facet normal 0 0 1
    outer loop
      vertex 2.1 4.105 11.25
      vertex 2.9125 5.51229 11.25
      vertex 0 33.57 11.25
    endloop
  endfacet
  facet normal 0 0 1
    outer loop
      vertex 2.9125 5.51229 11.25
      vertex 4.5375 5.51229 11.25
      vertex 0 33.57 11.25
    endloop
  endfacet
  facet normal 0 0 1
    outer loop
      vertex 5.35 4.105 11.25
      vertex 7.94 0 11.25
      vertex 4.5375 5.51229 11.25
    endloop
  endfacet
  facet normal 0 -0 1
    outer loop
      vertex 4.5375 2.69771 11.25
      vertex 2.9125 2.69771 11.25
      vertex 7.94 0 11.25
    endloop
  endfacet
  facet normal 0 0 1
    outer loop
      vertex 2.9125 30.8723 11.25
      vertex 4.5375 30.8723 11.25
      vertex 7.94 33.57 11.25
    endloop
  endfacet
  facet normal 0 0 1
    outer loop
      vertex 0 0 11.25
      vertex 2.9125 2.69771 11.25
      vertex 2.1 4.105 11.25
    endloop
  endfacet
  facet normal 0 0 1
    outer loop
      vertex 0 0 11.25
      vertex 7.94 0 11.25
      vertex 2.9125 2.69771 11.25
    endloop
  endfacet
  facet normal 0 0 1
    outer loop
      vertex 7.94 0 11.25
      vertex 2.1 29.465 11.25
      vertex 0 33.57 11.25
    endloop
  endfacet
  facet normal 0 0 1
    outer loop
      vertex 2.1 29.465 11.25
      vertex 2.9125 30.8723 11.25
      vertex 0 33.57 11.25
    endloop
  endfacet
  facet normal 0 -0 1
    outer loop
      vertex 5.35 29.465 11.25
      vertex 4.5375 28.0577 11.25
      vertex 7.94 0 11.25
    endloop
  endfacet
  facet normal 0 0 1
    outer loop
      vertex 5.35 29.465 11.25
      vertex 7.94 33.57 11.25
      vertex 4.5375 30.8723 11.25
    endloop
  endfacet
  facet normal 0 0 1
    outer loop
      vertex 7.94 0 11.25
      vertex 7.94 33.57 11.25
      vertex 5.35 29.465 11.25
    endloop
  endfacet
  facet normal 0 0 1
    outer loop
      vertex 7.94 0 11.25
      vertex 2.9125 28.0577 11.25
      vertex 2.1 29.465 11.25
    endloop
  endfacet
  facet normal 0 0 1
    outer loop
      vertex 7.94 0 11.25
      vertex 4.5375 28.0577 11.25
      vertex 2.9125 28.0577 11.25
    endloop
  endfacet
  facet normal 0 -0 1
    outer loop
      vertex 5.35 4.105 11.25
      vertex 4.5375 2.69771 11.25
      vertex 7.94 0 11.25
    endloop
  endfacet
  facet normal 0 0 1
    outer loop
      vertex 26.1425 30.8723 11.25
      vertex 30.68 33.57 11.25
      vertex 22.74 33.57 11.25
    endloop
  endfacet
  facet normal 0 0 1
    outer loop
      vertex 28.58 4.105 11.25
      vertex 30.68 0 11.25
      vertex 22.74 33.57 11.25
    endloop
  endfacet
  facet normal 0 0 1
    outer loop
      vertex 22.74 0 11.25
      vertex 25.33 4.105 11.25
      vertex 22.74 33.57 11.25
    endloop
  endfacet
  facet normal 0 0 1
    outer loop
      vertex 25.33 4.105 11.25
      vertex 26.1425 5.51229 11.25
      vertex 22.74 33.57 11.25
    endloop
  endfacet
  facet normal 0 0 1
    outer loop
      vertex 26.1425 5.51229 11.25
      vertex 27.7675 5.51229 11.25
      vertex 22.74 33.57 11.25
    endloop
  endfacet
  facet normal 0 -0 1
    outer loop
      vertex 27.7675 2.69771 11.25
      vertex 26.1425 2.69771 11.25
      vertex 30.68 0 11.25
    endloop
  endfacet
  facet normal 0 0 1
    outer loop
      vertex 27.7675 5.51229 11.25
      vertex 28.58 4.105 11.25
      vertex 22.74 33.57 11.25
    endloop
  endfacet
  facet normal 0 0 1
    outer loop
      vertex 26.1425 30.8723 11.25
      vertex 27.7675 30.8723 11.25
      vertex 30.68 33.57 11.25
    endloop
  endfacet
  facet normal 0 0 1
    outer loop
      vertex 22.74 0 11.25
      vertex 26.1425 2.69771 11.25
      vertex 25.33 4.105 11.25
    endloop
  endfacet
  facet normal 0 0 1
    outer loop
      vertex 22.74 0 11.25
      vertex 30.68 0 11.25
      vertex 26.1425 2.69771 11.25
    endloop
  endfacet
  facet normal 0 0 1
    outer loop
      vertex 30.68 0 11.25
      vertex 25.33 29.465 11.25
      vertex 22.74 33.57 11.25
    endloop
  endfacet
  facet normal 0 0 1
    outer loop
      vertex 25.33 29.465 11.25
      vertex 26.1425 30.8723 11.25
      vertex 22.74 33.57 11.25
    endloop
  endfacet
  facet normal 0 -0 1
    outer loop
      vertex 28.58 29.465 11.25
      vertex 27.7675 28.0577 11.25
      vertex 30.68 0 11.25
    endloop
  endfacet
  facet normal 0 0 1
    outer loop
      vertex 28.58 29.465 11.25
      vertex 30.68 33.57 11.25
      vertex 27.7675 30.8723 11.25
    endloop
  endfacet
  facet normal 0 0 1
    outer loop
      vertex 30.68 0 11.25
      vertex 30.68 33.57 11.25
      vertex 28.58 29.465 11.25
    endloop
  endfacet
  facet normal 0 0 1
    outer loop
      vertex 30.68 0 11.25
      vertex 26.1425 28.0577 11.25
      vertex 25.33 29.465 11.25
    endloop
  endfacet
  facet normal 0 0 1
    outer loop
      vertex 30.68 0 11.25
      vertex 27.7675 28.0577 11.25
      vertex 26.1425 28.0577 11.25
    endloop
  endfacet
  facet normal 0 -0 1
    outer loop
      vertex 28.58 4.105 11.25
      vertex 27.7675 2.69771 11.25
      vertex 30.68 0 11.25
    endloop
  endfacet
  facet normal 0.866025 -0.5 0
    outer loop
      vertex 2.9125 5.51229 5.25
      vertex 2.9125 5.51229 11.25
      vertex 2.1 4.105 11.25
    endloop
  endfacet
  facet normal 0.866025 -0.5 0
    outer loop
      vertex 2.1 4.105 5.25
      vertex 2.9125 5.51229 5.25
      vertex 2.1 4.105 11.25
    endloop
  endfacet
  facet normal 0.866025 0.5 0
    outer loop
      vertex 2.1 4.105 11.25
      vertex 2.9125 2.69771 11.25
      vertex 2.9125 2.69771 5.25
    endloop
  endfacet
  facet normal 0.866025 0.5 0
    outer loop
      vertex 2.1 4.105 5.25
      vertex 2.1 4.105 11.25
      vertex 2.9125 2.69771 5.25
    endloop
  endfacet
  facet normal 0 1 0
    outer loop
      vertex 4.5375 2.69771 11.25
      vertex 4.5375 2.69771 5.25
      vertex 2.9125 2.69771 11.25
    endloop
  endfacet
  facet normal 0 1 -0
    outer loop
      vertex 2.9125 2.69771 11.25
      vertex 4.5375 2.69771 5.25
      vertex 2.9125 2.69771 5.25
    endloop
  endfacet
  facet normal -0.866025 0.5 0
    outer loop
      vertex 5.35 4.105 11.25
      vertex 5.35 4.105 5.25
      vertex 4.5375 2.69771 11.25
    endloop
  endfacet
  facet normal -0.866025 0.5 0
    outer loop
      vertex 4.5375 2.69771 11.25
      vertex 5.35 4.105 5.25
      vertex 4.5375 2.69771 5.25
    endloop
  endfacet
  facet normal -0.866025 -0.5 0
    outer loop
      vertex 5.35 4.105 11.25
      vertex 4.5375 5.51229 11.25
      vertex 5.35 4.105 5.25
    endloop
  endfacet
  facet normal -0.866025 -0.5 0
    outer loop
      vertex 5.35 4.105 5.25
      vertex 4.5375 5.51229 11.25
      vertex 4.5375 5.51229 5.25
    endloop
  endfacet
  facet normal 0 -1 0
    outer loop
      vertex 4.5375 5.51229 5.25
      vertex 4.5375 5.51229 11.25
      vertex 2.9125 5.51229 11.25
    endloop
  endfacet
  facet normal -0 -1 -0
    outer loop
      vertex 2.9125 5.51229 5.25
      vertex 4.5375 5.51229 5.25
      vertex 2.9125 5.51229 11.25
    endloop
  endfacet
  facet normal 0.866025 -0.5 0
    outer loop
      vertex 2.9125 30.8723 5.25
      vertex 2.9125 30.8723 11.25
      vertex 2.1 29.465 11.25
    endloop
  endfacet
  facet normal 0.866025 -0.5 0
    outer loop
      vertex 2.1 29.465 5.25
      vertex 2.9125 30.8723 5.25
      vertex 2.1 29.465 11.25
    endloop
  endfacet
  facet normal 0.866025 0.5 0
    outer loop
      vertex 2.1 29.465 11.25
      vertex 2.9125 28.0577 11.25
      vertex 2.9125 28.0577 5.25
    endloop
  endfacet
  facet normal 0.866025 0.5 0
    outer loop
      vertex 2.1 29.465 5.25
      vertex 2.1 29.465 11.25
      vertex 2.9125 28.0577 5.25
    endloop
  endfacet
  facet normal 0 1 0
    outer loop
      vertex 4.5375 28.0577 11.25
      vertex 4.5375 28.0577 5.25
      vertex 2.9125 28.0577 11.25
    endloop
  endfacet
  facet normal 0 1 -0
    outer loop
      vertex 2.9125 28.0577 11.25
      vertex 4.5375 28.0577 5.25
      vertex 2.9125 28.0577 5.25
    endloop
  endfacet
  facet normal -0.866025 0.5 0
    outer loop
      vertex 5.35 29.465 11.25
      vertex 5.35 29.465 5.25
      vertex 4.5375 28.0577 11.25
    endloop
  endfacet
  facet normal -0.866025 0.5 0
    outer loop
      vertex 4.5375 28.0577 11.25
      vertex 5.35 29.465 5.25
      vertex 4.5375 28.0577 5.25
    endloop
  endfacet
  facet normal -0.866025 -0.5 0
    outer loop
      vertex 5.35 29.465 11.25
      vertex 4.5375 30.8723 11.25
      vertex 5.35 29.465 5.25
    endloop
  endfacet
  facet normal -0.866025 -0.5 0
    outer loop
      vertex 5.35 29.465 5.25
      vertex 4.5375 30.8723 11.25
      vertex 4.5375 30.8723 5.25
    endloop
  endfacet
  facet normal 0 -1 0
    outer loop
      vertex 4.5375 30.8723 5.25
      vertex 4.5375 30.8723 11.25
      vertex 2.9125 30.8723 11.25
    endloop
  endfacet
  facet normal -0 -1 -0
    outer loop
      vertex 2.9125 30.8723 5.25
      vertex 4.5375 30.8723 5.25
      vertex 2.9125 30.8723 11.25
    endloop
  endfacet
  facet normal 0.866025 -0.5 0
    outer loop
      vertex 26.1425 5.51229 5.25
      vertex 26.1425 5.51229 11.25
      vertex 25.33 4.105 11.25
    endloop
  endfacet
  facet normal 0.866025 -0.5 0
    outer loop
      vertex 25.33 4.105 5.25
      vertex 26.1425 5.51229 5.25
      vertex 25.33 4.105 11.25
    endloop
  endfacet
  facet normal 0.866025 0.5 0
    outer loop
      vertex 25.33 4.105 11.25
      vertex 26.1425 2.69771 11.25
      vertex 26.1425 2.69771 5.25
    endloop
  endfacet
  facet normal 0.866025 0.5 0
    outer loop
      vertex 25.33 4.105 5.25
      vertex 25.33 4.105 11.25
      vertex 26.1425 2.69771 5.25
    endloop
  endfacet
  facet normal 0 1 0
    outer loop
      vertex 27.7675 2.69771 11.25
      vertex 27.7675 2.69771 5.25
      vertex 26.1425 2.69771 11.25
    endloop
  endfacet
  facet normal 0 1 -0
    outer loop
      vertex 26.1425 2.69771 11.25
      vertex 27.7675 2.69771 5.25
      vertex 26.1425 2.69771 5.25
    endloop
  endfacet
  facet normal -0.866025 0.5 0
    outer loop
      vertex 28.58 4.105 11.25
      vertex 28.58 4.105 5.25
      vertex 27.7675 2.69771 11.25
    endloop
  endfacet
  facet normal -0.866025 0.5 0
    outer loop
      vertex 27.7675 2.69771 11.25
      vertex 28.58 4.105 5.25
      vertex 27.7675 2.69771 5.25
    endloop
  endfacet
  facet normal -0.866025 -0.5 0
    outer loop
      vertex 28.58 4.105 11.25
      vertex 27.7675 5.51229 11.25
      vertex 28.58 4.105 5.25
    endloop
  endfacet
  facet normal -0.866025 -0.5 0
    outer loop
      vertex 28.58 4.105 5.25
      vertex 27.7675 5.51229 11.25
      vertex 27.7675 5.51229 5.25
    endloop
  endfacet
  facet normal 0 -1 0
    outer loop
      vertex 27.7675 5.51229 5.25
      vertex 27.7675 5.51229 11.25
      vertex 26.1425 5.51229 11.25
    endloop
  endfacet
  facet normal -0 -1 -0
    outer loop
      vertex 26.1425 5.51229 5.25
      vertex 27.7675 5.51229 5.25
      vertex 26.1425 5.51229 11.25
    endloop
  endfacet
  facet normal 0.866025 0.5 0
    outer loop
      vertex 25.33 29.465 11.25
      vertex 26.1425 28.0577 11.25
      vertex 26.1425 28.0577 5.25
    endloop
  endfacet
  facet normal 0.866025 0.5 0
    outer loop
      vertex 25.33 29.465 5.25
      vertex 25.33 29.465 11.25
      vertex 26.1425 28.0577 5.25
    endloop
  endfacet
  facet normal 0.866025 -0.5 0
    outer loop
      vertex 26.1425 30.8723 5.25
      vertex 26.1425 30.8723 11.25
      vertex 25.33 29.465 11.25
    endloop
  endfacet
  facet normal 0.866025 -0.5 0
    outer loop
      vertex 25.33 29.465 5.25
      vertex 26.1425 30.8723 5.25
      vertex 25.33 29.465 11.25
    endloop
  endfacet
  facet normal 0 1 0
    outer loop
      vertex 27.7675 28.0577 11.25
      vertex 27.7675 28.0577 5.25
      vertex 26.1425 28.0577 11.25
    endloop
  endfacet
  facet normal 0 1 -0
    outer loop
      vertex 26.1425 28.0577 11.25
      vertex 27.7675 28.0577 5.25
      vertex 26.1425 28.0577 5.25
    endloop
  endfacet
  facet normal -0.866025 0.5 0
    outer loop
      vertex 28.58 29.465 11.25
      vertex 28.58 29.465 5.25
      vertex 27.7675 28.0577 11.25
    endloop
  endfacet
  facet normal -0.866025 0.5 0
    outer loop
      vertex 27.7675 28.0577 11.25
      vertex 28.58 29.465 5.25
      vertex 27.7675 28.0577 5.25
    endloop
  endfacet
  facet normal -0.866025 -0.5 0
    outer loop
      vertex 28.58 29.465 11.25
      vertex 27.7675 30.8723 11.25
      vertex 28.58 29.465 5.25
    endloop
  endfacet
  facet normal -0.866025 -0.5 0
    outer loop
      vertex 28.58 29.465 5.25
      vertex 27.7675 30.8723 11.25
      vertex 27.7675 30.8723 5.25
    endloop
  endfacet
  facet normal 0 -1 0
    outer loop
      vertex 27.7675 30.8723 5.25
      vertex 27.7675 30.8723 11.25
      vertex 26.1425 30.8723 11.25
    endloop
  endfacet
  facet normal -0 -1 -0
    outer loop
      vertex 26.1425 30.8723 5.25
      vertex 27.7675 30.8723 5.25
      vertex 26.1425 30.8723 11.25
    endloop
  endfacet
  facet normal 0 0 1
    outer loop
      vertex 2.9125 2.69771 5.25
      vertex 4.5375 2.69771 5.25
      vertex 5.35 4.105 5.25
    endloop
  endfacet
  facet normal 0 -0 1
    outer loop
      vertex 2.9125 5.51229 5.25
      vertex 2.9125 2.69771 5.25
      vertex 4.5375 5.51229 5.25
    endloop
  endfacet
  facet normal 0 -0 1
    outer loop
      vertex 4.5375 5.51229 5.25
      vertex 2.9125 2.69771 5.25
      vertex 5.35 4.105 5.25
    endloop
  endfacet
  facet normal 0 0 1
    outer loop
      vertex 2.1 4.105 5.25
      vertex 2.9125 2.69771 5.25
      vertex 2.9125 5.51229 5.25
    endloop
  endfacet
  facet normal 0 0 1
    outer loop
      vertex 2.9125 28.0577 5.25
      vertex 4.5375 28.0577 5.25
      vertex 5.35 29.465 5.25
    endloop
  endfacet
  facet normal 0 -0 1
    outer loop
      vertex 2.9125 30.8723 5.25
      vertex 2.9125 28.0577 5.25
      vertex 4.5375 30.8723 5.25
    endloop
  endfacet
  facet normal 0 -0 1
    outer loop
      vertex 4.5375 30.8723 5.25
      vertex 2.9125 28.0577 5.25
      vertex 5.35 29.465 5.25
    endloop
  endfacet
  facet normal 0 0 1
    outer loop
      vertex 2.1 29.465 5.25
      vertex 2.9125 28.0577 5.25
      vertex 2.9125 30.8723 5.25
    endloop
  endfacet
  facet normal 0 0 1
    outer loop
      vertex 26.1425 2.69771 5.25
      vertex 27.7675 2.69771 5.25
      vertex 28.58 4.105 5.25
    endloop
  endfacet
  facet normal 0 -0 1
    outer loop
      vertex 26.1425 5.51229 5.25
      vertex 26.1425 2.69771 5.25
      vertex 27.7675 5.51229 5.25
    endloop
  endfacet
  facet normal 0 -0 1
    outer loop
      vertex 27.7675 5.51229 5.25
      vertex 26.1425 2.69771 5.25
      vertex 28.58 4.105 5.25
    endloop
  endfacet
  facet normal 0 0 1
    outer loop
      vertex 25.33 4.105 5.25
      vertex 26.1425 2.69771 5.25
      vertex 26.1425 5.51229 5.25
    endloop
  endfacet
  facet normal 0 0 1
    outer loop
      vertex 26.1425 28.0577 5.25
      vertex 27.7675 28.0577 5.25
      vertex 28.58 29.465 5.25
    endloop
  endfacet
  facet normal 0 -0 1
    outer loop
      vertex 26.1425 30.8723 5.25
      vertex 26.1425 28.0577 5.25
      vertex 27.7675 30.8723 5.25
    endloop
  endfacet
  facet normal 0 -0 1
    outer loop
      vertex 27.7675 30.8723 5.25
      vertex 26.1425 28.0577 5.25
      vertex 28.58 29.465 5.25
    endloop
  endfacet
  facet normal 0 0 1
    outer loop
      vertex 25.33 29.465 5.25
      vertex 26.1425 28.0577 5.25
      vertex 26.1425 30.8723 5.25
    endloop
  endfacet
endsolid OpenSCAD_Model
